PathFileType	4	(X/Y/Z)	RBDS019static.trc
DataRate	CameraRate	NumFrames	NumMarkers	Units	OrigDataRate	OrigDataStartFrame	OrigNumFrames
150.000000	150.000000	4	48	mm	150.000000	93	150
Frame#	Time	L.Ankle			L.Ankle.Medial			L.ASIS			L.GTR			L.Heel.Bottom			L.Heel.Lateral			L.Heel.Top			L.HF			L.Iliac.Crest			L.Knee			L.Knee.Medial			L.MT1			L.MT2			L.MT5			L.PSIS			L.Shank.Bottom.Lateral			L.Shank.Bottom.Medial			L.Shank.Top.Lateral			L.Shank.Top.Medial			L.Thigh.Bottom.Lateral			L.Thigh.Bottom.Medial			L.Thigh.Top.Lateral			L.Thigh.Top.Medial			L.TT			R.Ankle			R.Ankle.Medial			R.ASIS			R.GTR			R.Heel.Bottom			R.Heel.Lateral			R.Heel.Top			R.HF			R.Iliac.Crest			R.Knee			R.Knee.Medial			R.MT1			R.MT2			R.MT5			R.PSIS			R.Shank.Bottom.Lateral			R.Shank.Bottom.Medial			R.Shank.Top.Lateral			R.Shank.Top.Medial			R.Thigh.Bottom.Lateral			R.Thigh.Bottom.Medial			R.Thigh.Top.Lateral			R.Thigh.Top.Medial			R.TT			
		X1	Y1	Z1	X2	Y2	Z2	X3	Y3	Z3	X4	Y4	Z4	X5	Y5	Z5	X6	Y6	Z6	X7	Y7	Z7	X8	Y8	Z8	X9	Y9	Z9	X10	Y10	Z10	X11	Y11	Z11	X12	Y12	Z12	X13	Y13	Z13	X14	Y14	Z14	X15	Y15	Z15	X16	Y16	Z16	X17	Y17	Z17	X18	Y18	Z18	X19	Y19	Z19	X20	Y20	Z20	X21	Y21	Z21	X22	Y22	Z22	X23	Y23	Z23	X24	Y24	Z24	X25	Y25	Z25	X26	Y26	Z26	X27	Y27	Z27	X28	Y28	Z28	X29	Y29	Z29	X30	Y30	Z30	X31	Y31	Z31	X32	Y32	Z32	X33	Y33	Z33	X34	Y34	Z34	X35	Y35	Z35	X36	Y36	Z36	X37	Y37	Z37	X38	Y38	Z38	X39	Y39	Z39	X40	Y40	Z40	X41	Y41	Z41	X42	Y42	Z42	X43	Y43	Z43	X44	Y44	Z44	X45	Y45	Z45	X46	Y46	Z46	X47	Y47	Z47	X48	Y48	Z48	

94	0.62	710.3807983398438	94.56526184082031	1046.624877929688	717.8009643554688	101.8800354003906	1126.727416992188	832.02001953125	971.1917724609375	1113.5595703125	769.0283203125	890.9091796875	1050.69970703125	635.2301635742188	36.33955764770508	1081.82666015625	666.7749633789063	56.34922027587891	1040.552490234375	643.6709594726563	84.26484680175781	1083.01513671875	720.4403686523438	441.8465576171875	1036.36474609375	772.80908203125	1024.920532226563	1072.18408203125	725.1405029296875	500.4573974609375	1043.087158203125	706.4639282226563	481.1778259277344	1165.533203125	836.641845703125	54.21583557128906	1127.606811523438	845.7778930664063	67.45595550537109	1084.466796875	812.52490234375	48.32638168334961	1020.951599121094	657.0460815429688	994.6768798828125	1165.931274414063	699.926513671875	176.6832122802734	1037.03369140625	660.9638061523438	172.4176788330078	1069.863525390625	686.969970703125	255.7713317871094	1026.0673828125	648.3604736328125	255.7430725097656	1062.109375	725.6905517578125	613.1119995117188	1035.952392578125	662.7017211914063	620.8734741210938	1073.446044921875	735.8969116210938	722.3828125	1033.030517578125	676.4107666015625	729.3414916992188	1069.8642578125	769.732421875	425.9338989257813	1089.918090820313	706.3132934570313	98.99513244628906	1407.0078125	723.6717529296875	109.3454055786133	1327.5390625	814.6322631835938	972.8260498046875	1349.921997070313	742.8870239257813	898.49658203125	1400.6142578125	634.5645141601563	40.00975799560547	1368.17333984375	661.9093017578125	57.32170867919922	1407.327514648438	644.1246337890625	84.9541015625	1365.89306640625	714.9945068359375	451.3218688964844	1404.2548828125	757.4357299804688	1036.273681640625	1367.23876953125	718.0355834960938	511.7232666015625	1396.91552734375	722.7822265625	484.7890625	1273.866088867188	832.3595581054688	58.7609748840332	1328.453735351563	846.5869140625	69.93391418457031	1370.982543945313	805.6978759765625	47.610595703125	1434.5341796875	653.1857299804688	1003.86962890625	1267.526611328125	698.05322265625	171.0064086914063	1411.764892578125	659.1669921875	168.6409759521484	1371.921875	683.7147216796875	250.6174926757813	1419.70654296875	647.303466796875	247.8003845214844	1379.509155273438	706.3806762695313	607.3240356445313	1404.318725585938	655.9573974609375	610.2423706054688	1353.426025390625	707.6844482421875	717.704345703125	1408.640502929688	657.067626953125	720.0079956054688	1362.650146484375	768.36865234375	429.8300476074219	1352.3779296875	
95	0.6266666666666667	710.3793334960938	94.55150604248047	1046.62744140625	717.808837890625	101.8861999511719	1126.72802734375	832.0294799804688	971.1865844726563	1113.555908203125	769.0311889648438	890.9119262695313	1050.688354492188	635.2255249023438	36.34298706054688	1081.82470703125	666.7649536132813	56.34329986572266	1040.552490234375	643.664306640625	84.24874877929688	1083.016967773438	720.4442138671875	441.8389282226563	1036.3603515625	772.8235473632813	1024.912109375	1072.173461914063	725.1429443359375	500.4560852050781	1043.082397460938	706.4556884765625	481.1864929199219	1165.546142578125	836.6393432617188	54.20523071289063	1127.61181640625	845.7869262695313	67.45832824707031	1084.466430664063	812.5166015625	48.32699966430664	1020.950134277344	657.0559692382813	994.6765747070313	1165.920654296875	699.92578125	176.6805419921875	1037.03125	660.9597778320313	172.4235534667969	1069.853393554688	686.974365234375	255.7603912353516	1026.069213867188	648.3643188476563	255.7421875	1062.11181640625	725.7014770507813	613.1199951171875	1035.941040039063	662.7081298828125	620.8765258789063	1073.43798828125	735.9158325195313	722.3912353515625	1033.027709960938	676.4166259765625	729.3375244140625	1069.866577148438	769.725341796875	425.92724609375	1089.904907226563	706.3046875	98.99945068359375	1407.02392578125	723.6697387695313	109.3477096557617	1327.538940429688	814.6375732421875	972.8173217773438	1349.912963867188	742.8935546875	898.5015258789063	1400.609130859375	634.56494140625	40.0075569152832	1368.167846679688	661.9050903320313	57.3198356628418	1407.31982421875	644.1187744140625	84.95367431640625	1365.901123046875	715.00341796875	451.3297119140625	1404.2421875	757.4312133789063	1036.269165039063	1367.22509765625	718.0386352539063	511.72021484375	1396.908325195313	722.791259765625	484.7833557128906	1273.864624023438	832.3543701171875	58.75574493408203	1328.454711914063	846.5906982421875	69.9375	1370.985961914063	805.6863403320313	47.61095428466797	1434.529663085938	653.1880493164063	1003.872375488281	1267.512573242188	698.0509033203125	171.0110473632813	1411.76953125	659.1599731445313	168.6480407714844	1371.926025390625	683.7094116210938	250.6227416992188	1419.70166015625	647.2960815429688	247.8081512451172	1379.5	706.3786010742188	607.3257446289063	1404.311157226563	655.9566040039063	610.2486572265625	1353.414794921875	707.6871948242188	717.6996459960938	1408.638427734375	657.0751953125	720.0093994140625	1362.649291992188	768.3739624023438	429.8273315429688	1352.369018554688	
96	0.6333333333333334	710.3845825195313	94.5517578125	1046.618286132813	717.8047485351563	101.8846282958984	1126.7333984375	832.0396728515625	971.1917724609375	1113.5458984375	769.0421752929688	890.9104614257813	1050.67626953125	635.2277221679688	36.33853912353516	1081.81982421875	666.7720947265625	56.34122467041016	1040.556274414063	643.6658325195313	84.26445007324219	1083.010864257813	720.4678344726563	441.8322143554688	1036.360229492188	772.8377685546875	1024.911987304688	1072.158813476563	725.1505126953125	500.4574890136719	1043.078857421875	706.461181640625	481.186279296875	1165.525146484375	836.631591796875	54.20925521850586	1127.614501953125	845.7918090820313	67.45187377929688	1084.465454101563	812.5143432617188	48.3227653503418	1020.957397460938	657.0620727539063	994.666748046875	1165.913818359375	699.9259643554688	176.6831817626953	1037.028930664063	660.9634399414063	172.4163055419922	1069.86279296875	686.9756469726563	255.7619018554688	1026.061401367188	648.3682861328125	255.7414398193359	1062.10009765625	725.7219848632813	613.1204223632813	1035.939819335938	662.712646484375	620.8776245117188	1073.436401367188	735.9235229492188	722.3924560546875	1033.015747070313	676.4248657226563	729.3336181640625	1069.85302734375	769.751953125	425.9360656738281	1089.909545898438	706.294677734375	98.81385040283203	1406.824462890625	723.6710205078125	109.3480377197266	1327.544067382813	814.6396484375	972.8224487304688	1349.904418945313	742.8920288085938	898.4915161132813	1400.597412109375	634.5673217773438	40.0066032409668	1368.1708984375	661.9066162109375	57.32388687133789	1407.32470703125	644.1201782226563	84.95014953613281	1365.881591796875	714.9994506835938	451.332763671875	1404.241943359375	757.4402465820313	1036.268432617188	1367.21630859375	718.04296875	511.7205810546875	1396.891479492188	722.80126953125	484.7750549316406	1273.875244140625	832.361328125	58.75426864624023	1328.450927734375	846.5823974609375	69.92205810546875	1371.001098632813	805.6930541992188	47.61565017700195	1434.531127929688	653.1895141601563	1003.869018554688	1267.50341796875	698.05615234375	170.9980621337891	1411.758422851563	659.1666870117188	168.6411895751953	1371.926391601563	683.716552734375	250.6193389892578	1419.696044921875	647.305419921875	247.8047790527344	1379.5048828125	706.3861083984375	607.3250732421875	1404.31005859375	655.962158203125	610.2454223632813	1353.408813476563	707.69287109375	717.7015991210938	1408.6396484375	657.0814208984375	720.00634765625	1362.629028320313	768.3735961914063	429.8219604492188	1352.350952148438	
97	0.64	710.3975830078125	94.54261779785156	1046.618896484375	717.8156127929688	101.8890075683594	1126.731811523438	832.05615234375	971.1878662109375	1113.550415039063	769.0534057617188	890.9025268554688	1050.675903320313	635.2275390625	36.34485626220703	1081.818481445313	666.7694091796875	56.34295654296875	1040.549194335938	643.6796875	84.2596435546875	1083.014038085938	720.4508056640625	441.82080078125	1036.317504882813	772.8413696289063	1024.908325195313	1072.143188476563	725.1575317382813	500.4496459960938	1043.06884765625	706.4677124023438	481.1888732910156	1165.517578125	836.6392211914063	54.21395874023438	1127.609741210938	845.7713012695313	67.45326995849609	1084.464965820313	812.5189208984375	48.3209114074707	1020.966247558594	657.0811157226563	994.6655883789063	1165.9013671875	699.9317016601563	176.6778717041016	1037.028564453125	660.9603271484375	172.4220428466797	1069.86572265625	686.9782104492188	255.7591400146484	1026.062255859375	648.3701171875	255.7407531738281	1062.101806640625	725.734130859375	613.1285400390625	1035.931640625	662.7234497070313	620.8806762695313	1073.42578125	735.9319458007813	722.3859252929688	1033.01416015625	676.4321899414063	729.3441772460938	1069.848022460938	769.739990234375	425.9264221191406	1089.908203125	706.3161010742188	98.99619293212891	1407.019409179688	723.6776733398438	109.3426132202148	1327.539306640625	814.6458129882813	972.822265625	1349.900146484375	742.9002685546875	898.492919921875	1400.593383789063	634.57470703125	40.00532913208008	1368.168701171875	661.904296875	57.32733154296875	1407.323608398438	644.1215209960938	84.95691680908203	1365.892456054688	715.0053100585938	451.3254699707031	1404.22900390625	757.4421997070313	1036.270385742188	1367.20458984375	718.0441284179688	511.7237243652344	1396.896484375	722.80126953125	484.7776489257813	1273.869873046875	832.3560791015625	58.7549934387207	1328.448486328125	846.5836181640625	69.92275238037109	1370.98779296875	805.6992797851563	47.58765411376953	1434.527954101563	653.204345703125	1003.867553710938	1267.48583984375	698.0581665039063	171.011962890625	1411.755493164063	659.1683349609375	168.6475677490234	1371.9228515625	683.7201538085938	250.6187744140625	1419.701293945313	647.3048706054688	247.8085174560547	1379.50244140625	706.3829956054688	607.3258666992188	1404.307373046875	655.962890625	610.2603759765625	1353.40625	707.6923217773438	717.7075805664063	1408.623657226563	657.091552734375	720.0101318359375	1362.633178710938	768.3717651367188	429.8302917480469	1352.3583984375	
